<?xml version="1.0" encoding="UTF-8"?>
<svg width="256" height="256" viewBox="0 0 256 256" xmlns="http://www.w3.org/2000/svg">
  <defs>
    <clipPath id="circleMaskEn">
      <circle cx="128" cy="128" r="120"/>
    </clipPath>
  </defs>
  <rect width="256" height="256" fill="none"/>
  <g clip-path="url(#circleMaskEn)">
    <!-- Navy background -->
    <rect x="0" y="0" width="256" height="256" fill="#012169"/>
    <!-- White diagonals -->
    <polygon points="-32,0 0,-32 288,256 256,288" fill="#FFFFFF"/>
    <polygon points="256,-32 288,0 0,288 -32,256" fill="#FFFFFF"/>
    <!-- Red diagonals (narrower) -->
    <polygon points="-24,0 0,-24 280,256 256,280" fill="#C8102E"/>
    <polygon points="256,-24 280,0 0,280 -24,256" fill="#C8102E"/>
    <!-- Central white cross -->
    <rect x="0" y="88" width="256" height="80" fill="#FFFFFF"/>
    <rect x="88" y="0" width="80" height="256" fill="#FFFFFF"/>
    <!-- Central red cross -->
    <rect x="0" y="104" width="256" height="48" fill="#C8102E"/>
    <rect x="104" y="0" width="48" height="256" fill="#C8102E"/>
  </g>
  <circle cx="128" cy="128" r="119.5" fill="none" stroke="#00000020" stroke-width="1"/>
</svg>
